<?xml version="1.0" encoding="UTF-8" standalone="no"?>
<!-- Created with Inkscape (http://www.inkscape.org/) -->

<svg
   xmlns:dc="http://purl.org/dc/elements/1.1/"
   xmlns:cc="http://creativecommons.org/ns#"
   xmlns:rdf="http://www.w3.org/1999/02/22-rdf-syntax-ns#"
   xmlns:svg="http://www.w3.org/2000/svg"
   xmlns="http://www.w3.org/2000/svg"
   xmlns:sodipodi="http://sodipodi.sourceforge.net/DTD/sodipodi-0.dtd"
   xmlns:inkscape="http://www.inkscape.org/namespaces/inkscape"
   width="287mm"
   height="287mm"
   viewBox="0 0 287 287"
   version="1.1"
   id="svg4831"
   inkscape:version="0.92.1 r15371"
   sodipodi:docname="helix_green.svg">
  <defs
     id="defs4825" />
  <sodipodi:namedview
     id="base"
     pagecolor="#ffffff"
     bordercolor="#666666"
     borderopacity="1.0"
     inkscape:pageopacity="0.0"
     inkscape:pageshadow="2"
     inkscape:zoom="0.35"
     inkscape:cx="-114.28571"
     inkscape:cy="560"
     inkscape:document-units="mm"
     inkscape:current-layer="layer1"
     showgrid="false"
     inkscape:window-width="1854"
     inkscape:window-height="1057"
     inkscape:window-x="-8"
     inkscape:window-y="-8"
     inkscape:window-maximized="1" />
  <metadata
     id="metadata4828">
    <rdf:RDF>
      <cc:Work
         rdf:about="">
        <dc:format>image/svg+xml</dc:format>
        <dc:type
           rdf:resource="http://purl.org/dc/dcmitype/StillImage" />
        <dc:title></dc:title>
      </cc:Work>
    </rdf:RDF>
  </metadata>
  <g
     inkscape:label="Layer 1"
     inkscape:groupmode="layer"
     id="layer1"
     transform="translate(0,-10)">
    <path
       d="m 142.82455,153.99579 c -1.71537,2.38429 -3.86195,-0.49292 -3.42082,-2.46111 0.71866,-3.20637 4.63554,-4.16703 7.33662,-2.98167 4.03008,1.76859 5.17059,6.86752 3.2259,10.58086 -2.52126,4.81433 -8.79666,6.12584 -13.37201,3.52177 -5.55279,-3.16037 -7.02602,-10.539 -3.82603,-15.89488 3.73486,-6.25111 12.15076,-7.87856 18.23141,-4.12794 6.91566,4.26566 8.69101,13.66406 4.42422,20.42751 -4.76402,7.55165 -15.09931,9.46945 -22.51218,4.71392 -8.16322,-5.2369 -10.21871,-16.47055 -4.99694,-24.50532 5.68894,-8.75362 17.78789,-10.9426 26.42129,-5.27352 9.32543,6.12349 11.64415,19.05896 5.54401,28.2709 -6.54305,9.88078 -20.28968,12.32586 -30.0626,5.80879 -10.42137,-6.9495 -12.98976,-21.48475 -6.06821,-31.80304 7.34439,-10.94865 22.64798,-13.63757 33.49769,-6.32266 11.46384,7.72896 14.27073,23.78256 6.57244,35.15106 -8.10422,11.96796 -24.89111,14.89048 -36.76692,6.81786 -12.46192,-8.47102 -15.49789,-25.97589 -7.05919,-38.3485 8.8301,-12.94647 27.03882,-16.09387 39.89854,-7.29667 13.42232,9.18207 16.67925,28.08158 7.53053,41.41945 -9.52746,13.89003 -29.10563,17.25474 -42.9133,7.76097 -14.35016,-9.86676 -17.82098,-30.11224 -7.98817,-44.38196 10.20037,-14.80314 31.10255,-18.37853 45.82703,-8.21231 15.24944,10.52867 18.9279,32.07759 8.43353,47.24999 -10.85197,15.68942 -33.03824,19.46957 -48.65213,8.652 -16.12341,-11.17059 -20.00394,-33.98535 -8.86782,-50.03464 11.48476,-16.55175 34.91963,-20.5314 51.39857,-9.08113 16.9747,11.79474 21.05228,35.84176 9.29204,52.74489 -12.10076,17.39255 -36.75237,21.56691 -54.0745,9.50065 -17.80552,-12.40298 -22.075573,-37.65199 -9.70705,-55.38818 12.70162,-18.21383 38.54116,-22.57854 56.68669,-9.91133 18.61769,12.99682 23.07607,39.42033 10.11359,57.97069 -13.28876,19.0173 -40.28996,23.56838 -59.24084,10.3139 -19.412816,-13.57755 -24.05569,-41.15044 -10.51233,-60.49771 13.86335,-19.80441 42.00215,-24.53819 61.74185,-10.70895 20.19223,14.14627 25.01607,42.84545 10.90382,62.97376 -14.42643,20.57642 -43.68065,25.4895 -64.19391,11.097 -20.957114,-14.70392 -25.958651,-44.50805 -11.28855,-65.40274 14.97886,-21.33443 45.32795,-26.423661 66.60065,-11.47852 21.70851,15.25132 26.88469,46.14061 11.66697,67.78805 -15.5214,22.07943 -46.94629,27.34185 -68.96528,11.85394 -22.447312,-15.78919 -27.795294,-47.74521 -12.03948,-70.1327 16.05475,-22.81226 48.53761,-28.245126 71.29062,-12.22363 23.17435,16.31817 28.69146,49.32368 12.40644,72.43935 -16.57951,23.53368 -50.10364,29.1344 -73.57918,12.58793 C 87.871232,180.33309 82.187502,146.29426 98.993413,122.46154 116.0896,98.217171 150.63933,92.451028 174.82661,109.51442 c 24.59589,17.35166 30.44387,52.40859 13.12489,76.94788 -17.60528,24.94496 -53.16584,30.87422 -78.05467,13.3015 C 84.605195,181.90668 78.5952,145.84598 96.419876,120.61001 114.52709,94.974023 151.08454,88.883824 176.66531,106.95871 c 25.97808,18.35563 32.14797,55.40652 13.82455,81.32981 -18.60238,26.31798 -56.1435,32.56705 -82.40711,13.99676 C 81.427037,183.43774 75.099266,145.40951 93.914829,118.80776 113.00597,91.816395 151.51824,85.410407 178.45604,104.46968 c 27.32497,19.33321 33.80871,58.32656 14.50725,85.59835 -19.57379,27.65658 -59.04531,34.21762 -86.64909,14.67546 C 78.327942,184.93055 71.69006,144.9837 91.471468,117.04989 111.52213,88.735865 151.94155,82.021569 180.20348,102.04081 c 28.63994,20.287 35.43022,61.17629 15.17453,89.76448 -20.522,28.96403 -61.87851,35.82989 -90.79113,15.33909 C 75.300535,186.38871 68.359512,144.56756 89.084094,115.3323 110.07215,85.725365 152.35541,78.709575 181.91157,99.666649 c 29.92581,21.219181 37.01598,63.962071 15.82768,93.837431 -21.44907,30.24303 -64.64918,37.4072 -94.84206,15.9889 C 72.338567,187.81523 65.100783,144.16027 86.747868,113.6515 108.65312,82.778889 152.7606,75.467852 183.58365,97.342538 214.76869,119.47413 222.15262,164.03187 200.05149,195.16762 177.6947,226.66356 132.68894,234.12003 101.24201,211.7936 69.436685,189.21271 61.908013,143.76111 84.458641,112.00452 107.26253,79.891281 153.15783,72.290751 185.22259,95.06448 217.6423,118.0903 225.31436,164.42719 202.3186,196.79869 179.07189,229.52345 132.29547,237.2667 99.618674,214.04996 66.59026,190.5834 58.776129,143.36947 82.21282,110.38877 105.89823,77.058068 153.54767,69.173374 186.8309,92.829004 220.46255,116.73226 228.41749,164.81527 204.54392,198.39969 180.42378,232.33096 131.90912,240.35585 98.024845,216.26531 63.795253,191.92925 55.700706,142.98481 80.007266,108.80199 104.55831,74.275344 153.93066,66.11144 188.41076,90.633073 223.2332,115.39817 231.46618,165.19662 206.73039,199.97275 181.75215,235.08975 131.52938,243.39151 96.458474,218.44249 61.048114,193.25198 52.677854,142.60666 77.83922,107.24219 103.2411,71.539667 154.30725,63.101176 189.9641,88.47401 c 35.99351,25.6124 44.49996,77.09768 18.91652,113.04572 -25.82207,36.28334 -77.7248,44.85749 -113.962871,19.0643 C 58.345701,194.55312 49.704128,142.23459 75.706234,105.70762 101.94515,68.847986 154.67787,60.139239 191.49262,86.34944 c 37.14611,26.44611 45.92177,79.59142 19.50429,116.69285 -26.65252,37.4315 -80.20884,46.27384 -117.595854,19.64987 C 55.685216,195.83402 46.776461,141.86822 73.606131,104.1967 100.66911,66.197581 155.04286,57.222646 192.99784,84.257244 231.2792,111.52431 240.32008,166.3045 213.08132,204.54191 185.61091,243.10449 130.42576,252.21107 91.906953,224.76889 53.064156,197.09589 43.892106,141.50723 71.536958,102.70804 99.411828,63.586016 155.40256,54.348723 194.48115,82.195521 233.88141,110.27154 243.18372,166.66293 215.1357,206.01993 186.85923,245.69748 130.06859,255.06458 90.434142,226.81603 50.480265,198.33982 41.048591,141.1513 69.496956,101.24036 98.172226,61.011091 155.75727,51.515061 195.94376,80.162558 236.44749,109.03621 246.00767,167.01643 217.16172,207.47755 188.09036,248.25484 129.71628,257.87894 88.98145,228.83521 47.931507,199.5668 38.243681,140.80016 67.484536,99.792528 96.949345,58.470821 156.10725,48.719477 197.3868,78.156803 238.97939,107.81737 248.79405,167.36527 219.1609,208.91585 189.30521,250.77847 129.36857,260.65624 87.547814,230.82789 45.416033,200.77771 35.475346,140.45356 65.498254,98.3635 95.742313,55.963398 156.45274,45.959991 198.81127,76.176845 241.47886,106.61417 251.5448,167.70968 221.13461,210.33584 190.50462,253.27009 129.02523,263.39836 86.132263,232.79544 42.932156,201.97338 32.741738,140.11128 63.536794,96.95233 94.550334,53.487175 156.79398,43.234795 200.21812,74.221397 c 43.72941,31.204443 54.04357,93.828483 22.866,137.517013 -31.39477,43.99288 -94.39808,54.36863 -138.350206,23.00067 C 40.478337,203.15456 30.041165,139.7731 61.598949,95.558151 93.372677,51.040644 157.13116,40.542233 201.60818,72.28928 c 44.77868,31.96237 55.33815,96.0968 23.4024,140.83512 C 192.8601,258.1635 128.35082,268.78387 83.351952,236.65995 38.05316,204.32191 27.372074,139.43884 59.683615,94.180167 92.208673,48.62242 157.46448,37.880784 202.98223,70.379412 c 45.81598,32.711558 56.618,98.339048 23.93281,144.115148 -32.89753,46.0735 -98.89567,56.93573 -144.92941,24.06451 C 35.655324,205.47608 24.733036,139.10831 57.789773,92.817645 91.057707,46.231228 157.7941,35.24905 204.34099,68.490793 251.18283,101.94317 262.22474,169.04718 228.79849,215.84961 195.16218,262.94618 127.69154,274.04766 80.634259,240.43742 33.283628,206.61765 22.122733,138.78136 55.916484,91.46991 89.919209,43.86589 158.12018,32.645737 205.68513,66.622503 253.54188,100.8077 264.82114,169.3724 230.66184,217.19019 196.29464,265.29901 127.36717,276.63722 79.2972,242.29587 30.936959,207.74714 19.539944,138.45784 54.062876,90.136335 88.792652,41.525314 158.44287,30.069646 207.01526,64.773687 255.87642,99.684055 267.3906,169.69427 232.50591,218.5169 197.41541,267.62758 127.04612,279.20012 77.973861,244.13525 28.614287,208.86507 16.983536,138.13759 52.228142,88.816338 87.677547,39.208489 158.76231,27.519665 208.33195,62.943552 258.18746,98.57174 269.93422,170.01292 234.33149,219.83032 198.52496,269.93289 126.72825,281.73744 76.663691,245.95632 26.314652,209.97188 14.452456,137.8205 50.411531,87.50938 86.573439,36.91447 159.07864,24.99476 209.63573,61.13136 260.47592,97.470314 272.45301,170.32848 236.13931,221.13095 199.62373,272.21584 126.41345,284.25017 75.366179,247.7598 24.037159,211.06803 11.945721,137.50644 48.612341,86.214956 85.479903,34.642381 159.39195,22.493966 210.92709,59.336422 262.74266,96.379357 274.94792,170.64106 237.93004,222.41928 200.71213,274.47728 126.10159,286.73925 74.080845,249.54636 21.780974,212.15389 9.4624139,137.1953 46.829919,84.932595 84.396542,32.391399 159.70238,20.01638 212.20651,57.558095 264.98848,95.298482 277.41983,170.95078 239.70431,223.69578 201.79055,276.718 125.79256,289.20555 72.807241,251.31661 19.545316,213.22987 7.0016774,136.88697 45.063652,83.661857 83.322986,30.160756 160.01002,17.561159 213.4744,55.795775 267.21416,94.227322 279.86959,171.25774 241.46271,224.96086 202.85933,278.93874 125.48628,291.64989 71.544947,253.07114 17.329451,214.2963 4.5627065,136.58136 43.312965,82.402328 82.258886,27.949731 160.31497,15.127509 214.73119,54.048898 269.42038,93.165535 282.29796,171.56204 243.20581,226.21493 203.91883,281.14022 125.18264,294.07304 70.293569,254.81049 15.132693,215.35352 2.1447454,136.27836 41.57732,81.153621 81.203916,25.757646 160.61733,12.714688 215.97725,52.316933 271.60783,92.112798 284.70569,171.86376 244.93413,227.45837 204.96935,283.32307 124.88155,296.47571 69.052737,256.53519 12.954394,216.40185 -0.25291674,135.9779 39.856208,79.915369 80.157768,23.583865 160.91718,10.321994 217.21294,50.599378 273.77713,91.068809 287.09346,172.16299 246.64816,228.69152 206.0112,285.48793 124.58292,298.85859 67.8221,258.24572 10.793943,217.44157 -2.6309498,135.67988 38.149151,78.68723 79.120152,21.427786 161.2146,7.9487682 218.43861,48.895763 275.92888,90.033282 289.46191,172.45982 248.34836,229.91473 207.04465,287.63537 124.28669,301.22232 66.60133,259.94253 8.6507673,218.47297 -4.9899858,135.38423 36.455697,77.468877 78.090793,19.288842 161.50967,5.5943869 219.65456,47.205643 278.06362,89.005948 291.81168,172.75431 250.03517,231.1283 208.06998,289.76595 123.99277,303.5675 65.390116,261.62607 6.5243218,219.49631 -7.3306219,135.09087 34.77542,76.260004 77.069435,17.166498 161.80246,3.2582613 220.86111,45.528596 280.1819,87.98655 294.14333,173.04654 251.70901,232.33255 209.08743,291.88019 123.70109,305.89471 64.188162,263.29673 4.4140925,220.51183 -9.6534232,134.79974 33.107916,75.060321 76.055831,15.060245 162.09304,0.93983388 222.05854,43.864225 282.2842,86.974848 296.45741,173.33658 253.37027,233.52774 210.09725,293.97857 123.41158,308.20449 62.99519,264.9549 2.3195923,221.51977 -11.958925,134.51077 31.452803,73.869553 75.049749,12.969604 162.38148,-1.3614235 223.24712,42.212152 284.37101,85.970612 298.75446,173.6245 255.01933,234.71415 211.09965,296.06158 123.12419,310.49735 61.810935,266.60096 0.24035921,222.52035 -14.247635,134.2239 29.809718,72.687437 74.05097,10.894119 162.66784,-3.6460123 224.42711,40.572019 286.44278,84.973626 301.03495,173.91035 256.65653,235.89203 212.09486,298.12965 122.83885,312.77378 60.635146,268.23525 -1.8240457,223.51379 -16.520036,133.93906 28.178315,71.513727 73.059285,8.8333547 162.95218,-5.9144085 225.59876,38.943486 288.49993,83.983683 303.29937,174.19419 258.28222,237.06163 213.08307,300.18321 122.55549,315.03425 59.467584,269.85811 -3.8740397,224.50029 -18.776587,133.6562 26.558268,70.348187 72.074495,6.7869007 163.23456,-8.167065 226.76229,37.326228 276.8964,73.228116 298.74841,139.13436 280.09985,197.89397"
       sodipodi:t0="0"
       sodipodi:argument="-16.6551"
       sodipodi:radius="144.12341"
       sodipodi:revolution="48.700001"
       sodipodi:expansion="0.67000002"
       sodipodi:cy="153.99579"
       sodipodi:cx="142.82455"
       id="path8567"
       style="fill:none;fill-rule:evenodd;stroke:#abd7ab;stroke-width:0.24193755;stroke-opacity:1"
       sodipodi:type="spiral" />
  </g>
</svg>
